<mxfile host="app.diagrams.net" agent="Mozilla/5.0 (Windows NT 10.0; Win64; x64) AppleWebKit/537.36 (KHTML, like Gecko) Chrome/131.0.0.0 Safari/537.36 Edg/131.0.0.0" version="24.8.6">
  <diagram name="Page-1" id="7i-4v0zAJsowgX3oVM7f">
    <mxGraphModel dx="922" dy="516" grid="1" gridSize="10" guides="1" tooltips="1" connect="1" arrows="1" fold="1" page="1" pageScale="1" pageWidth="850" pageHeight="1100" math="0" shadow="0">
      <root>
        <mxCell id="0" />
        <mxCell id="1" parent="0" />
        <mxCell id="CEejXCD23gDXgeJD0QO5-3" value="" style="edgeStyle=orthogonalEdgeStyle;rounded=0;orthogonalLoop=1;jettySize=auto;html=1;" edge="1" parent="1" source="CEejXCD23gDXgeJD0QO5-1" target="CEejXCD23gDXgeJD0QO5-2">
          <mxGeometry relative="1" as="geometry" />
        </mxCell>
        <mxCell id="CEejXCD23gDXgeJD0QO5-5" value="" style="edgeStyle=orthogonalEdgeStyle;rounded=0;orthogonalLoop=1;jettySize=auto;html=1;" edge="1" parent="1" source="CEejXCD23gDXgeJD0QO5-1" target="CEejXCD23gDXgeJD0QO5-4">
          <mxGeometry relative="1" as="geometry" />
        </mxCell>
        <mxCell id="CEejXCD23gDXgeJD0QO5-7" value="" style="edgeStyle=orthogonalEdgeStyle;rounded=0;orthogonalLoop=1;jettySize=auto;html=1;" edge="1" parent="1" source="CEejXCD23gDXgeJD0QO5-1" target="CEejXCD23gDXgeJD0QO5-6">
          <mxGeometry relative="1" as="geometry" />
        </mxCell>
        <mxCell id="CEejXCD23gDXgeJD0QO5-1" value="MAIN INDEX" style="rounded=1;whiteSpace=wrap;html=1;strokeColor=#050505;" vertex="1" parent="1">
          <mxGeometry x="365" y="40" width="120" height="60" as="geometry" />
        </mxCell>
        <mxCell id="CEejXCD23gDXgeJD0QO5-2" value="Create Questions" style="rounded=1;whiteSpace=wrap;html=1;strokeColor=#050505;" vertex="1" parent="1">
          <mxGeometry x="180" y="180" width="120" height="60" as="geometry" />
        </mxCell>
        <mxCell id="CEejXCD23gDXgeJD0QO5-4" value="Settings" style="whiteSpace=wrap;html=1;strokeColor=#050505;rounded=1;" vertex="1" parent="1">
          <mxGeometry x="540" y="180" width="120" height="60" as="geometry" />
        </mxCell>
        <mxCell id="CEejXCD23gDXgeJD0QO5-9" value="" style="edgeStyle=orthogonalEdgeStyle;rounded=0;orthogonalLoop=1;jettySize=auto;html=1;" edge="1" parent="1" source="CEejXCD23gDXgeJD0QO5-6" target="CEejXCD23gDXgeJD0QO5-8">
          <mxGeometry relative="1" as="geometry" />
        </mxCell>
        <mxCell id="CEejXCD23gDXgeJD0QO5-6" value="Start Quiz" style="rounded=1;whiteSpace=wrap;html=1;strokeColor=#050505;" vertex="1" parent="1">
          <mxGeometry x="365" y="290" width="120" height="60" as="geometry" />
        </mxCell>
        <mxCell id="CEejXCD23gDXgeJD0QO5-11" value="" style="edgeStyle=orthogonalEdgeStyle;rounded=0;orthogonalLoop=1;jettySize=auto;html=1;" edge="1" parent="1" source="CEejXCD23gDXgeJD0QO5-8" target="CEejXCD23gDXgeJD0QO5-10">
          <mxGeometry relative="1" as="geometry" />
        </mxCell>
        <mxCell id="CEejXCD23gDXgeJD0QO5-8" value="Select Categories" style="rounded=1;whiteSpace=wrap;html=1;strokeColor=#050505;" vertex="1" parent="1">
          <mxGeometry x="365" y="430" width="120" height="60" as="geometry" />
        </mxCell>
        <mxCell id="CEejXCD23gDXgeJD0QO5-15" value="" style="edgeStyle=orthogonalEdgeStyle;rounded=0;orthogonalLoop=1;jettySize=auto;html=1;" edge="1" parent="1" source="CEejXCD23gDXgeJD0QO5-10" target="CEejXCD23gDXgeJD0QO5-14">
          <mxGeometry relative="1" as="geometry" />
        </mxCell>
        <mxCell id="CEejXCD23gDXgeJD0QO5-24" style="edgeStyle=orthogonalEdgeStyle;rounded=0;orthogonalLoop=1;jettySize=auto;html=1;" edge="1" parent="1" source="CEejXCD23gDXgeJD0QO5-10" target="CEejXCD23gDXgeJD0QO5-16">
          <mxGeometry relative="1" as="geometry" />
        </mxCell>
        <mxCell id="CEejXCD23gDXgeJD0QO5-10" value="Choose Difficulty" style="rounded=1;whiteSpace=wrap;html=1;strokeColor=#050505;" vertex="1" parent="1">
          <mxGeometry x="365" y="570" width="120" height="60" as="geometry" />
        </mxCell>
        <mxCell id="CEejXCD23gDXgeJD0QO5-21" value="" style="edgeStyle=orthogonalEdgeStyle;rounded=0;orthogonalLoop=1;jettySize=auto;html=1;" edge="1" parent="1" source="CEejXCD23gDXgeJD0QO5-14" target="CEejXCD23gDXgeJD0QO5-20">
          <mxGeometry relative="1" as="geometry" />
        </mxCell>
        <mxCell id="CEejXCD23gDXgeJD0QO5-14" value="Intermediate" style="rounded=1;whiteSpace=wrap;html=1;strokeColor=#050505;" vertex="1" parent="1">
          <mxGeometry x="365" y="700" width="120" height="60" as="geometry" />
        </mxCell>
        <mxCell id="CEejXCD23gDXgeJD0QO5-16" value="Easy" style="rounded=1;whiteSpace=wrap;html=1;strokeColor=#050505;" vertex="1" parent="1">
          <mxGeometry x="165" y="700" width="120" height="60" as="geometry" />
        </mxCell>
        <mxCell id="CEejXCD23gDXgeJD0QO5-18" value="Hard" style="rounded=1;whiteSpace=wrap;html=1;strokeColor=#050505;" vertex="1" parent="1">
          <mxGeometry x="565" y="700" width="120" height="60" as="geometry" />
        </mxCell>
        <mxCell id="CEejXCD23gDXgeJD0QO5-20" value="" style="rounded=1;whiteSpace=wrap;html=1;" vertex="1" parent="1">
          <mxGeometry x="365" y="850" width="120" height="60" as="geometry" />
        </mxCell>
      </root>
    </mxGraphModel>
  </diagram>
</mxfile>
